<svg t="1720574990687" class="icon" viewBox="0 0 1024 1024" version="1.1" xmlns="http://www.w3.org/2000/svg" p-id="16834" id="mx_n_1720574990688" width="400" height="400"><path d="M570.25536 152.17664L837.4272 376.14592A92.16 92.16 0 0 1 870.4 446.7712V778.24a92.16 92.16 0 0 1-92.16 92.16H245.76a92.16 92.16 0 0 1-92.16-92.16V446.59712a92.16 92.16 0 0 1 32.73728-70.4512L451.62496 152.3712a92.16 92.16 0 0 1 118.6304-0.19456z m-77.42464 45.89568l-1.5872 1.25952L225.95584 423.1168a30.72 30.72 0 0 0-10.8544 21.4016l-0.06144 2.07872V778.24a30.72 30.72 0 0 0 28.91776 30.6688L245.76 808.96h532.48a30.72 30.72 0 0 0 30.6688-28.91776L808.96 778.24V446.7712a30.72 30.72 0 0 0-9.43104-22.14912l-1.55648-1.39264L530.78016 199.2704a30.72 30.72 0 0 0-37.94944-1.19808zM542.72 460.8a71.71072 71.71072 0 0 1 68.7104 51.2H675.84a71.68 71.68 0 0 1 71.63904 69.2224L747.52 583.68v20.48a71.69024 71.69024 0 0 1-62.59712 71.10656l-2.41664 0.26624 18.61632 51.28192L633.09824 675.84H552.96c-22.2208 0-42.0864-10.11712-55.23456-25.98912l-58.49088-0.01024-78.49984 58.81856 21.36064-58.81856H378.88a71.68 71.68 0 0 1-71.68-71.68V532.48a71.68 71.68 0 0 1 71.68-71.68h163.84z m133.12 112.64a20.48 20.48 0 1 0 0 40.96 20.48 20.48 0 0 0 0-40.96z m-61.44 0v4.73088a71.36256 71.36256 0 0 1-8.71424 34.28352A20.48 20.48 0 1 0 614.4 573.44z m-224.49152-41.74848a23.63392 23.63392 0 1 0 0 47.2576 23.63392 23.63392 0 0 0 0-47.2576z m70.89152 0a23.63392 23.63392 0 1 0 0 47.2576 23.63392 23.63392 0 0 0 0-47.2576z m70.89152 0a23.63392 23.63392 0 1 0 0 47.2576 23.63392 23.63392 0 0 0 0-47.2576z" fill="#FAB005" p-id="16835"></path></svg>